<mxfile host="app.diagrams.net" modified="2021-11-04T01:50:36.372Z" agent="5.0 (Windows NT 6.1; Win64; x64) AppleWebKit/537.36 (KHTML, like Gecko) Chrome/88.0.4324.96 Safari/537.36" etag="sYm9WTniWNgt_yFgHkvo" version="15.6.8" type="github">
  <diagram id="ou2I0I9FXUBxEGET_Rn_" name="Page-1">
    <mxGraphModel dx="1422" dy="762" grid="1" gridSize="10" guides="1" tooltips="1" connect="1" arrows="1" fold="1" page="1" pageScale="1" pageWidth="827" pageHeight="1169" math="0" shadow="0">
      <root>
        <mxCell id="0" />
        <mxCell id="1" parent="0" />
        <mxCell id="0ZZxTa-P83YtZlL9Fl9--2" value="时间轴" style="endArrow=classic;html=1;rounded=0;startArrow=none;" edge="1" parent="1" source="0ZZxTa-P83YtZlL9Fl9--12">
          <mxGeometry relative="1" as="geometry">
            <mxPoint x="20" y="290" as="sourcePoint" />
            <mxPoint x="1310" y="290" as="targetPoint" />
          </mxGeometry>
        </mxCell>
        <mxCell id="0ZZxTa-P83YtZlL9Fl9--4" value="" style="line;strokeWidth=2;direction=south;html=1;" vertex="1" parent="1">
          <mxGeometry x="70" y="270" width="10" height="40" as="geometry" />
        </mxCell>
        <mxCell id="0ZZxTa-P83YtZlL9Fl9--5" value="" style="line;strokeWidth=2;direction=south;html=1;" vertex="1" parent="1">
          <mxGeometry x="250" y="270" width="10" height="40" as="geometry" />
        </mxCell>
        <mxCell id="0ZZxTa-P83YtZlL9Fl9--6" value="" style="endArrow=none;html=1;rounded=0;" edge="1" parent="1" target="0ZZxTa-P83YtZlL9Fl9--5">
          <mxGeometry relative="1" as="geometry">
            <mxPoint x="20" y="290" as="sourcePoint" />
            <mxPoint x="1310" y="290" as="targetPoint" />
          </mxGeometry>
        </mxCell>
        <mxCell id="0ZZxTa-P83YtZlL9Fl9--8" value="" style="line;strokeWidth=2;direction=south;html=1;" vertex="1" parent="1">
          <mxGeometry x="414" y="270" width="10" height="40" as="geometry" />
        </mxCell>
        <mxCell id="0ZZxTa-P83YtZlL9Fl9--9" value="" style="endArrow=none;html=1;rounded=0;startArrow=none;" edge="1" parent="1" source="0ZZxTa-P83YtZlL9Fl9--5" target="0ZZxTa-P83YtZlL9Fl9--8">
          <mxGeometry relative="1" as="geometry">
            <mxPoint x="260" y="290" as="sourcePoint" />
            <mxPoint x="1310" y="290" as="targetPoint" />
          </mxGeometry>
        </mxCell>
        <mxCell id="0ZZxTa-P83YtZlL9Fl9--10" value="" style="line;strokeWidth=2;direction=south;html=1;" vertex="1" parent="1">
          <mxGeometry x="600" y="270" width="10" height="40" as="geometry" />
        </mxCell>
        <mxCell id="0ZZxTa-P83YtZlL9Fl9--11" value="" style="endArrow=none;html=1;rounded=0;startArrow=none;" edge="1" parent="1" source="0ZZxTa-P83YtZlL9Fl9--8" target="0ZZxTa-P83YtZlL9Fl9--10">
          <mxGeometry relative="1" as="geometry">
            <mxPoint x="424" y="290" as="sourcePoint" />
            <mxPoint x="1310" y="290" as="targetPoint" />
          </mxGeometry>
        </mxCell>
        <mxCell id="0ZZxTa-P83YtZlL9Fl9--12" value="" style="line;strokeWidth=2;direction=south;html=1;" vertex="1" parent="1">
          <mxGeometry x="790" y="270" width="10" height="40" as="geometry" />
        </mxCell>
        <mxCell id="0ZZxTa-P83YtZlL9Fl9--13" value="" style="endArrow=none;html=1;rounded=0;startArrow=none;" edge="1" parent="1" source="0ZZxTa-P83YtZlL9Fl9--10" target="0ZZxTa-P83YtZlL9Fl9--12">
          <mxGeometry relative="1" as="geometry">
            <mxPoint x="610" y="290" as="sourcePoint" />
            <mxPoint x="1310" y="290" as="targetPoint" />
          </mxGeometry>
        </mxCell>
        <mxCell id="0ZZxTa-P83YtZlL9Fl9--17" value="周一" style="text;strokeColor=none;fillColor=none;html=1;fontSize=24;fontStyle=1;verticalAlign=middle;align=center;" vertex="1" parent="1">
          <mxGeometry x="25" y="320" width="100" height="40" as="geometry" />
        </mxCell>
        <mxCell id="0ZZxTa-P83YtZlL9Fl9--18" value="周二bug" style="text;strokeColor=none;fillColor=none;html=1;fontSize=24;fontStyle=1;verticalAlign=middle;align=center;" vertex="1" parent="1">
          <mxGeometry x="200" y="320" width="100" height="40" as="geometry" />
        </mxCell>
        <mxCell id="0ZZxTa-P83YtZlL9Fl9--19" value="周三" style="text;strokeColor=none;fillColor=none;html=1;fontSize=24;fontStyle=1;verticalAlign=middle;align=center;" vertex="1" parent="1">
          <mxGeometry x="369" y="320" width="100" height="40" as="geometry" />
        </mxCell>
        <mxCell id="0ZZxTa-P83YtZlL9Fl9--20" value="周四需求" style="text;strokeColor=none;fillColor=none;html=1;fontSize=24;fontStyle=1;verticalAlign=middle;align=center;" vertex="1" parent="1">
          <mxGeometry x="555" y="320" width="100" height="40" as="geometry" />
        </mxCell>
        <mxCell id="0ZZxTa-P83YtZlL9Fl9--45" value="" style="edgeStyle=orthogonalEdgeStyle;rounded=0;orthogonalLoop=1;jettySize=auto;html=1;dashed=1;fontSize=12;" edge="1" parent="1" source="0ZZxTa-P83YtZlL9Fl9--21" target="0ZZxTa-P83YtZlL9Fl9--44">
          <mxGeometry relative="1" as="geometry" />
        </mxCell>
        <mxCell id="0ZZxTa-P83YtZlL9Fl9--21" value="周五" style="text;strokeColor=none;fillColor=none;html=1;fontSize=24;fontStyle=1;verticalAlign=middle;align=center;" vertex="1" parent="1">
          <mxGeometry x="740" y="320" width="100" height="40" as="geometry" />
        </mxCell>
        <mxCell id="0ZZxTa-P83YtZlL9Fl9--23" value="" style="endArrow=classic;html=1;rounded=0;entryX=0.5;entryY=1;entryDx=0;entryDy=0;dashed=1;" edge="1" parent="1" target="0ZZxTa-P83YtZlL9Fl9--17">
          <mxGeometry width="50" height="50" relative="1" as="geometry">
            <mxPoint x="75" y="420" as="sourcePoint" />
            <mxPoint x="110" y="420" as="targetPoint" />
          </mxGeometry>
        </mxCell>
        <mxCell id="0ZZxTa-P83YtZlL9Fl9--24" value="" style="endArrow=classic;html=1;rounded=0;dashed=1;exitX=0.5;exitY=1;exitDx=0;exitDy=0;" edge="1" parent="1" source="0ZZxTa-P83YtZlL9Fl9--18">
          <mxGeometry width="50" height="50" relative="1" as="geometry">
            <mxPoint x="254.5" y="420" as="sourcePoint" />
            <mxPoint x="250" y="430" as="targetPoint" />
          </mxGeometry>
        </mxCell>
        <mxCell id="0ZZxTa-P83YtZlL9Fl9--25" value="" style="endArrow=classic;html=1;rounded=0;dashed=1;exitX=0.5;exitY=1;exitDx=0;exitDy=0;" edge="1" parent="1" source="0ZZxTa-P83YtZlL9Fl9--19">
          <mxGeometry width="50" height="50" relative="1" as="geometry">
            <mxPoint x="418.5" y="420" as="sourcePoint" />
            <mxPoint x="419" y="430" as="targetPoint" />
          </mxGeometry>
        </mxCell>
        <mxCell id="0ZZxTa-P83YtZlL9Fl9--26" value="" style="endArrow=classic;html=1;rounded=0;entryX=0.5;entryY=0;entryDx=0;entryDy=0;dashed=1;exitX=0.5;exitY=1;exitDx=0;exitDy=0;" edge="1" parent="1" source="0ZZxTa-P83YtZlL9Fl9--20" target="0ZZxTa-P83YtZlL9Fl9--43">
          <mxGeometry width="50" height="50" relative="1" as="geometry">
            <mxPoint x="604.5" y="420" as="sourcePoint" />
            <mxPoint x="604.5" y="360" as="targetPoint" />
          </mxGeometry>
        </mxCell>
        <mxCell id="0ZZxTa-P83YtZlL9Fl9--29" value="&lt;font style=&quot;font-size: 12px&quot;&gt;回归测试待发布bug&lt;/font&gt;" style="text;strokeColor=none;fillColor=none;html=1;fontSize=16;fontStyle=1;verticalAlign=middle;align=center;" vertex="1" parent="1">
          <mxGeometry x="25" y="430" width="100" height="40" as="geometry" />
        </mxCell>
        <mxCell id="0ZZxTa-P83YtZlL9Fl9--30" value="&lt;span style=&quot;font-size: 12px&quot;&gt;发布前 - 开发提发布单&lt;br&gt;发布中 - 测试轮值、回归bug&lt;br&gt;发布后 - 填写测试简报&lt;br&gt;发布完成 - 填写周四需求发布清单&lt;br&gt;&lt;/span&gt;" style="text;strokeColor=none;fillColor=none;html=1;fontSize=16;fontStyle=1;verticalAlign=middle;align=left;" vertex="1" parent="1">
          <mxGeometry x="269" y="10" width="145" height="70" as="geometry" />
        </mxCell>
        <mxCell id="0ZZxTa-P83YtZlL9Fl9--31" value="&lt;span style=&quot;font-size: 12px&quot;&gt;发布前 - 开发提发布单&lt;br&gt;发布中 - 测试轮值、回归bug&lt;br&gt;发布后 - 填写测试简报&lt;br&gt;发布完成 - 填写周四需求发布清单&lt;br&gt;&lt;/span&gt;" style="text;strokeColor=none;fillColor=none;html=1;fontSize=16;fontStyle=1;verticalAlign=middle;align=left;" vertex="1" parent="1">
          <mxGeometry x="580" y="90" width="145" height="70" as="geometry" />
        </mxCell>
        <mxCell id="0ZZxTa-P83YtZlL9Fl9--35" value="" style="edgeStyle=orthogonalEdgeStyle;rounded=0;orthogonalLoop=1;jettySize=auto;html=1;dashed=1;fontSize=12;" edge="1" parent="1" source="0ZZxTa-P83YtZlL9Fl9--33" target="0ZZxTa-P83YtZlL9Fl9--34">
          <mxGeometry relative="1" as="geometry" />
        </mxCell>
        <mxCell id="0ZZxTa-P83YtZlL9Fl9--33" value="&lt;span style=&quot;font-weight: 700&quot;&gt;发布前&lt;br&gt;开发提发布单&lt;/span&gt;" style="rounded=1;whiteSpace=wrap;html=1;fontSize=12;align=center;" vertex="1" parent="1">
          <mxGeometry x="190" y="430" width="120" height="60" as="geometry" />
        </mxCell>
        <mxCell id="0ZZxTa-P83YtZlL9Fl9--37" value="" style="edgeStyle=orthogonalEdgeStyle;rounded=0;orthogonalLoop=1;jettySize=auto;html=1;dashed=1;fontSize=12;" edge="1" parent="1" source="0ZZxTa-P83YtZlL9Fl9--34" target="0ZZxTa-P83YtZlL9Fl9--36">
          <mxGeometry relative="1" as="geometry" />
        </mxCell>
        <mxCell id="0ZZxTa-P83YtZlL9Fl9--34" value="&lt;span style=&quot;font-weight: 700&quot;&gt;发布中 - 测试轮值、回归bug&lt;/span&gt;" style="rounded=1;whiteSpace=wrap;html=1;fontSize=12;align=left;" vertex="1" parent="1">
          <mxGeometry x="190" y="520" width="120" height="60" as="geometry" />
        </mxCell>
        <mxCell id="0ZZxTa-P83YtZlL9Fl9--39" value="" style="edgeStyle=orthogonalEdgeStyle;rounded=0;orthogonalLoop=1;jettySize=auto;html=1;dashed=1;fontSize=12;" edge="1" parent="1" source="0ZZxTa-P83YtZlL9Fl9--36" target="0ZZxTa-P83YtZlL9Fl9--38">
          <mxGeometry relative="1" as="geometry" />
        </mxCell>
        <mxCell id="0ZZxTa-P83YtZlL9Fl9--36" value="&lt;span style=&quot;font-weight: 700&quot;&gt;发布后 - 填写测试简报&lt;/span&gt;" style="rounded=1;whiteSpace=wrap;html=1;fontSize=12;align=left;" vertex="1" parent="1">
          <mxGeometry x="190" y="620" width="120" height="60" as="geometry" />
        </mxCell>
        <mxCell id="0ZZxTa-P83YtZlL9Fl9--38" value="&lt;span style=&quot;font-weight: 700&quot;&gt;发布完成&lt;br&gt;填写周四需求清单&lt;/span&gt;" style="rounded=1;whiteSpace=wrap;html=1;fontSize=12;align=center;" vertex="1" parent="1">
          <mxGeometry x="190" y="720" width="120" height="60" as="geometry" />
        </mxCell>
        <mxCell id="0ZZxTa-P83YtZlL9Fl9--40" value="&lt;span style=&quot;font-weight: 700&quot;&gt;发布中&lt;br&gt;测试轮值、回归bug&lt;/span&gt;" style="rounded=1;whiteSpace=wrap;html=1;fontSize=12;align=center;" vertex="1" parent="1">
          <mxGeometry x="190" y="520" width="120" height="60" as="geometry" />
        </mxCell>
        <mxCell id="0ZZxTa-P83YtZlL9Fl9--41" value="&lt;span style=&quot;font-weight: 700&quot;&gt;发布后&lt;br&gt;填写测试简报&lt;/span&gt;" style="rounded=1;whiteSpace=wrap;html=1;fontSize=12;align=center;" vertex="1" parent="1">
          <mxGeometry x="190" y="620" width="120" height="60" as="geometry" />
        </mxCell>
        <mxCell id="0ZZxTa-P83YtZlL9Fl9--42" value="&lt;b&gt;回归发布任务&lt;/b&gt;" style="rounded=1;whiteSpace=wrap;html=1;fontSize=12;align=center;" vertex="1" parent="1">
          <mxGeometry x="359" y="430" width="120" height="60" as="geometry" />
        </mxCell>
        <mxCell id="0ZZxTa-P83YtZlL9Fl9--43" value="&lt;b&gt;轮值发布&lt;/b&gt;" style="rounded=1;whiteSpace=wrap;html=1;fontSize=12;align=center;" vertex="1" parent="1">
          <mxGeometry x="545" y="430" width="120" height="60" as="geometry" />
        </mxCell>
        <mxCell id="0ZZxTa-P83YtZlL9Fl9--44" value="&lt;b&gt;填写下周二bug清单&lt;/b&gt;" style="rounded=1;whiteSpace=wrap;html=1;fontSize=12;align=center;" vertex="1" parent="1">
          <mxGeometry x="730" y="430" width="120" height="60" as="geometry" />
        </mxCell>
      </root>
    </mxGraphModel>
  </diagram>
</mxfile>
